<?xml version="1.0" encoding="UTF-8"?>
<svg id="Layer_1" xmlns="http://www.w3.org/2000/svg" xmlns:xlink="http://www.w3.org/1999/xlink" version="1.1" viewBox="0 0 1790.727865 301.5472954">
  <!-- Generator: Adobe Illustrator 29.8.2, SVG Export Plug-In . SVG Version: 2.1.1 Build 3)  -->
  <defs>
    <style>
      .st0 {
        fill: #1e1c22;
      }

      .st1 {
        fill: url(#linear-gradient1);
      }

      .st2 {
        fill: url(#linear-gradient);
      }
    </style>
    <linearGradient id="linear-gradient" x1="43.9845581" y1="468.0426209" x2="246.0153977" y2="670.0734336" gradientTransform="translate(0 -416.0003052)" gradientUnits="userSpaceOnUse">
      <stop offset=".221564" stop-color="#ff1f38"/>
      <stop offset=".6700274" stop-color="#8629ff"/>
      <stop offset="1" stop-color="#4300ad"/>
    </linearGradient>
    <linearGradient id="linear-gradient1" x1="1475.3520306" y1="567.3055551" x2="1711.7313031" y2="567.3055551" gradientTransform="translate(0 -416.0003052)" gradientUnits="userSpaceOnUse">
      <stop offset="0" stop-color="#ff1f38"/>
      <stop offset="1" stop-color="#8629ff"/>
    </linearGradient>
  </defs>
  <path class="st2" d="M138.0563763,180.2128732c0,11.2850342-9.1537857,20.4333496-20.4455414,20.4333496s-20.4455414-9.1483154-20.4455414-20.4333496,9.1537857-20.4333496,20.4455414-20.4333496,20.4455414,9.1483154,20.4455414,20.4333496ZM172.4226788,159.7795236c-11.2917633,0-20.4455414,9.1483154-20.4455414,20.4333496s9.1537781,20.4333496,20.4455414,20.4333496,20.4455414-9.1483154,20.4455414-20.4333496-9.1537781-20.4333496-20.4455414-20.4333496ZM222.5543774,163.4177072c-9.28125,0-16.8051758,7.5194092-16.8051758,16.795166s7.523941,16.795166,16.8051758,16.795166,16.8051758-7.5194092,16.8051758-16.795166-7.523941-16.795166-16.8051758-16.795166ZM222.5543774,216.714094c-7.4729004,0-13.5308838,6.0544434-13.5308838,13.5228271s6.0579834,13.5228271,13.5308838,13.5228271,13.5308838-6.0544434,13.5308838-13.5228271-6.0579834-13.5228271-13.5308838-13.5228271h0ZM222.5543774,62.3556955c-7.4729004,0-13.5308838,6.0543213-13.5308838,13.5228271s6.0579834,13.5228271,13.5308838,13.5228271,13.5308838-6.0544434,13.5308838-13.5228271-6.0579834-13.5228271-13.5308838-13.5228271ZM213.922099,28.3610666c-4.8838196,0-8.842926,3.9567871-8.842926,8.8376465s3.9591064,8.8376465,8.842926,8.8376465,8.842926-3.9567871,8.842926-8.8376465-3.9591064-8.8376465-8.842926-8.8376465ZM262.0347546,71.7260568c-4.8838196,0-8.842926,3.9567871-8.842926,8.8376465s3.9591064,8.8376465,8.842926,8.8376465c4.8838043,0,8.8429108-3.9567871,8.8429108-8.8376465s-3.9591064-8.8376465-8.842926-8.8376465h.0000153ZM262.0347546,216.714094c-4.8838196,0-8.842926,3.9567871-8.842926,8.8376465s3.9591064,8.8376465,8.842926,8.8376465c4.8838043,0,8.8429108-3.9567871,8.8429108-8.8376465s-3.9591064-8.8376465-8.842926-8.8376465h.0000153ZM213.922099,260.557844c-4.8838196,0-8.842926,3.9567871-8.842926,8.8376465s3.9591064,8.8376465,8.842926,8.8376465,8.842926-3.9567871,8.842926-8.8376465-3.9591064-8.8376465-8.842926-8.8376465ZM117.6108273,105.5020578c-11.2917633,0-20.4455414,9.1483154-20.4455414,20.4333496s9.1537857,20.4333496,20.4455414,20.4333496,20.445549-9.1483154,20.445549-20.4333496-9.1537857-20.4333496-20.445549-20.4333496ZM172.4730939,105.5020578c-11.2917633,0-20.4455414,9.1483154-20.4455414,20.4333496s9.1537781,20.4333496,20.4455414,20.4333496,20.4455414-9.1483154,20.4455414-20.4333496-9.1537781-20.4333496-20.4455414-20.4333496ZM222.5543774,108.6994455c-9.5248108,0-17.2462006,7.7167969-17.2462006,17.2359619s7.7213898,17.2359619,17.2462006,17.2359619,17.2462006-7.7167969,17.2462006-17.2359619-7.7213898-17.2359619-17.2462006-17.2359619ZM268.3566998,114.2990549c-6.4303894,0-11.6432648,5.2097168-11.6432648,11.6363525s5.2128754,11.6363525,11.6432648,11.6363525,11.6432495-5.2097168,11.6432495-11.6363525-5.2128601-11.6363525-11.6432495-11.6363525ZM268.3566998,168.5765207c-6.4303894,0-11.6432648,5.2097168-11.6432648,11.6363525s5.2128754,11.6363525,11.6432648,11.6363525,11.6432495-5.2097168,11.6432495-11.6363525-5.2128601-11.6363525-11.6432495-11.6363525ZM50.6404179,180.2128732c0,9.2757568,7.5239334,16.795166,16.8051796,16.795166s16.8051834-7.5194092,16.8051834-16.795166-7.5239334-16.795166-16.8051796-16.795166-16.8051796,7.5194092-16.8051834,16.795166ZM53.9147137,230.2369211c0,7.4685059,6.0579834,13.5228271,13.5308838,13.5228271s13.5308838-6.0544434,13.5308838-13.5228271-6.0579834-13.5228271-13.5308838-13.5228271-13.5308838,6.0544434-13.5308838,13.5228271h0ZM53.9147137,75.8785227c0,7.4685059,6.0579834,13.5228271,13.5308838,13.5228271s13.5308838-6.0544434,13.5308838-13.5228271-6.0579834-13.5228271-13.5308838-13.5228271-13.5308838,6.0543213-13.5308838,13.5228271ZM67.2349423,37.1987131c0,4.8809204,3.9591141,8.8376465,8.842926,8.8376465s8.842926-3.9567871,8.842926-8.8376465c0-4.8809204-3.9591141-8.8376465-8.842926-8.8376465s-8.842926,3.9567871-8.842926,8.8376465ZM19.1222876,80.5637033c0,4.8808594,3.9591131,8.8376465,8.8429251,8.8376465s8.842926-3.9567871,8.842926-8.8376465-3.9591122-8.8376465-8.842926-8.8376465-8.842926,3.9567871-8.8429251,8.8376465ZM19.1222876,225.5517404c0,4.8808594,3.9591131,8.8376465,8.8429251,8.8376465s8.842926-3.9567871,8.842926-8.8376465-3.9591122-8.8376465-8.842926-8.8376465-8.842926,3.9567871-8.8429251,8.8376465ZM67.2349423,269.3956125c0,4.8808594,3.9591141,8.8376465,8.842926,8.8376465s8.842926-3.9567871,8.842926-8.8376465-3.9591141-8.8376465-8.842926-8.8376465-8.842926,3.9567871-8.842926,8.8376465ZM50.1993893,125.9354074c0,9.519165,7.7213898,17.2359619,17.2462082,17.2359619s17.2462082-7.7167969,17.2462082-17.2359619-7.7213898-17.2359619-17.2462082-17.2359619-17.2462082,7.7167969-17.2462082,17.2359619ZM9.9999798,125.9354074c0,6.4265137,5.2128658,11.6363525,11.6432629,11.6363525s11.6432629-5.2097168,11.6432629-11.6363525-5.2128658-11.6363525-11.6432629-11.6363525-11.6432629,5.2097168-11.6432629,11.6363525ZM9.9999798,180.2128732c0,6.4265137,5.2128658,11.6363525,11.6432629,11.6363525s11.6432629-5.2097168,11.6432629-11.6363525-5.2128658-11.6363525-11.6432629-11.6363525-11.6432629,5.2097168-11.6432629,11.6363525ZM117.6108273,58.6877268c-9.4998627,0-17.2010269,7.6965332-17.2010269,17.1907959s7.7011642,17.1907959,17.2010269,17.1907959,17.2010193-7.6965332,17.2010193-17.1907959-7.7011642-17.1907959-17.2010193-17.1907959ZM172.4226788,58.6877268c-9.4998627,0-17.2010345,7.6965332-17.2010345,17.1907959s7.7011566,17.1907959,17.2010193,17.1907959,17.2010193-7.6965332,17.2010193-17.1907959-7.7011566-17.1907959-17.2010193-17.1907959h.0000153ZM117.6108273,213.0706613c-9.4998627,0-17.2010269,7.6965332-17.2010269,17.1907959s7.7011642,17.1907959,17.2010269,17.1907959,17.2010193-7.6965332,17.2010193-17.1907959-7.7011642-17.1907959-17.2010193-17.1907959ZM117.6108273,18.2065256c-6.5758591,0-11.9066391,5.3276367-11.9066391,11.8995361,0,6.5719604,5.3307877,11.8995361,11.9066391,11.8995361s11.9066391-5.3276367,11.9066391-11.8995361-5.3307877-11.8995361-11.9066391-11.8995361ZM172.4226788,18.2065256c-6.5758514,0-11.9066467,5.3276367-11.9066467,11.8995361,0,6.5719604,5.33078,11.8995361,11.9066467,11.8995361s11.9066467-5.3276367,11.9066467-11.8995361-5.33078-11.8995361-11.9066467-11.8995361ZM117.6108273,264.4074533c-6.5758591,0-11.9066391,5.3276367-11.9066391,11.8995361s5.3307877,11.8995361,11.9066391,11.8995361,11.9066391-5.3276367,11.9066391-11.8995361-5.3307877-11.8995361-11.9066391-11.8995361ZM172.4458874,213.0706613c-9.4998627,0-17.2010193,7.6965332-17.2010193,17.1907959s7.7011566,17.1907959,17.2010193,17.1907959,17.2010193-7.6965332,17.2010193-17.1907959-7.7011566-17.1907959-17.2010193-17.1907959ZM172.4458874,264.4074533c-6.5758514,0-11.9066467,5.3276367-11.9066467,11.8995361s5.33078,11.8995361,11.9066467,11.8995361,11.9066467-5.3276367,11.9066467-11.8995361-5.33078-11.8995361-11.9066467-11.8995361Z"/>
  <g>
    <g>
      <path class="st0" d="M455.6817731,251.8575266c-14.075531,0-26.5259705-2.4571533-37.3601074-7.3608398-10.8323669-4.9055176-19.3527527-11.9884033-25.5540771-21.2504883-6.2066345-9.2568359-9.4019775-20.3671875-9.58255-33.3309326h35.2747192c.1841125,9.6303711,3.5157776,17.6851807,10.0003357,24.1661377,6.4810181,6.4827881,15.5555115,9.7205811,27.2216797,9.7205811,9.9985657,0,17.9577637-2.4040527,23.8882446-7.2209473,5.9233704-4.8133545,8.8868408-11.2023926,8.8868408-19.1668701,0-8.1451416-2.4996338-14.4862061-7.4989319-19.0269775-4.9992981-4.5355225-11.5741272-8.2849121-19.7209778-11.2484131-8.1503906-2.9599609-17.0390015-6.0153809-26.665802-9.1665039-15.3713989-4.9992676-26.9419861-11.5705566-34.7206116-19.7209473-7.7786255-8.1468506-11.6661682-18.979248-11.6661682-32.4989014,0-11.1103516,2.6819763-20.7849121,8.0548096-29.0273438,5.3692627-8.2371826,12.9160156-14.6260986,22.6384277-19.1651001,9.7224121-4.5354614,20.9707947-6.8049927,33.7487183-6.8049927,12.9584961,0,24.3042603,2.3173218,34.0249023,6.9430542,9.7224121,4.6310425,17.3629761,11.1102905,22.9181213,19.4447632,5.5551453,8.3327637,8.5150757,18.1489258,8.8868408,29.4416504h-35.5544128c-.1858826-7.0351562-2.9634705-13.3762207-8.3309631-19.0269775-5.3745728-5.6453857-12.8735046-8.5628662-22.5003357-8.7487793-8.3327332,0-15.2333069,2.1314697-20.6946411,6.388916-5.4631042,4.2611084-8.1928711,10.2764893-8.1928711,18.0551758,0,7.0386963,2.0836182,12.4981689,6.249115,16.3875732,4.1672668,3.8892822,9.9047546,7.1307373,17.221344,9.7224121,7.3148193,2.5952148,15.695343,5.4631348,25.1380615,8.6107178,9.444458,3.3334961,18.0993958,7.2209473,25.9718628,11.6661377,7.868927,4.4433594,14.1658325,10.2764893,18.8871765,17.4992676,4.723114,7.2209473,7.0846863,16.5733643,7.0846863,28.0537109,0,10.0003662-2.5952454,19.3049316-7.7786255,27.9156494-5.1869507,8.6107178-12.8239441,15.555542-22.9145813,20.8327637-10.0959473,5.2772217-22.5463562,7.916748-37.3601074,7.916748l-.0001221-.0002441Z"/>
      <path class="st0" d="M570.116557,86.3074777c-6.1110229,0-11.156311-1.8959961-15.1376953-5.6932373-3.9849243-3.7937012-5.9711914-8.4725342-5.9711914-14.02771,0-5.7375488,1.9862671-10.4163818,5.9711914-14.027771,3.9813843-3.6096191,9.0266724-5.4152832,15.1376953-5.4152832s11.154541,1.8056641,15.1394653,5.4152832c3.9796143,3.6113892,5.9711914,8.2902222,5.9711914,14.027771,0,5.5551758-1.9915771,10.2340088-5.9711914,14.02771-3.9849243,3.7972412-9.0284424,5.6932373-15.1394653,5.6932373ZM553.4510907,248.5240305V108.5298899h33.3309326v139.9941406h-33.3309326Z"/>
      <path class="st0" d="M683.166972,248.5240305c-14.2631836,0-25.6036377-3.4255371-34.0284424-10.2783203-8.4265747-6.8474121-12.6362915-19.069458-12.6362915-36.6644287v-64.9978027h-23.8882446v-28.0537109h23.8882446l3.8875732-36.9440918h29.4434204v36.9440918h38.0540771v28.0537109h-38.0540771v64.9978027c0,7.0386963,1.4799805,11.8999023,4.4434204,14.5817871,2.9598999,2.6872559,8.1468506,4.0273438,15.555481,4.0273438h17.2213135v28.333374h-23.8864746v.0002441Z"/>
      <path class="st0" d="M798.1611737,251.8575266c-13.8861084,0-26.1081543-3.0130615-36.6643677-9.0284424-10.5544434-6.0153809-18.796875-14.4862061-24.7220459-25.4160156-5.9269409-10.9226074-8.8868408-23.5146484-8.8868408-37.776123,0-14.6260986,2.9156494-27.5421143,8.7487793-38.7480469,5.8330688-11.2023926,14.0702515-19.9511719,24.7220459-26.2480469,10.6447144-6.293335,23.0066528-9.444458,37.0821533-9.444458,13.7020264,0,25.6443481,3.055542,35.8305664,9.1665039,10.1826782,6.111084,18.0551147,14.3039551,23.6102905,24.5821533,5.5569458,10.2764893,8.3327637,21.8045654,8.3327637,34.5808105,0,1.8535156-.0460205,3.8892822-.1380615,6.111084-.0955811,2.2235107-.2337036,4.5407715-.4177856,6.9448242h-104.9956055c.7399902,12.0396729,4.6275024,21.3443604,11.6661987,27.9156494,7.0350952,6.5748291,15.555481,9.8604736,25.5558472,9.8604736,7.7768555,0,14.208313-1.6658936,19.3032227-4.9992676,5.0913696-3.3334961,8.8408203-7.7786865,11.2519531-13.3337402h33.8867798c-3.8893433,13.1514893-11.4855957,24.0759277-22.7764893,32.7768555-11.2979736,8.7062988-25.0955811,13.0559082-41.3892822,13.0559082l-.0001221-.0001221ZM798.1611737,132.4180734c-9.0744629,0-17.0814819,2.7332764-24.0263062,8.1928711-6.9430542,5.4648438-11.2484131,13.6595459-12.9160156,24.5821533h71.3867798c-.3735352-10.1809082-3.7972412-18.1932373-10.2764893-24.0263672-6.4863281-5.8331299-14.5411377-8.7487793-24.1679077-8.7487793l-.000061.0001221Z"/>
      <path class="st0" d="M960.3759564,251.8575266c-13.7055664,0-25.9276123-3.1032715-36.6643677-9.3063965-10.7420654-6.2012939-19.1668701-14.7641602-25.2778931-25.6921387-6.1110229-10.9244385-9.1665649-23.6103516-9.1665649-38.0540771s3.055542-27.1738281,9.1665649-38.1939697c6.1110229-11.0147705,14.5358276-19.6732178,25.2778931-25.9700928,10.7367554-6.293335,22.9588623-9.444458,36.6643677-9.444458,17.4054565,0,32.0828857,4.583252,44.0269775,13.7497559,11.9423218,9.1665039,19.5828857,21.7125244,22.9145508,37.6362305h-34.9985352c-1.8517456-7.0351562-5.6932373-12.59021-11.5263062-16.6655273-5.8330688-4.0716553-12.7336426-6.111084-20.6928711-6.111084-10.3739014,0-19.1226196,3.8892822-26.2498169,11.6661377-7.1307373,7.7768555-10.6942749,18.796875-10.6942749,33.0548096,0,14.2614746,3.5635986,25.3239746,10.6942749,33.1928711,7.1271973,7.8724365,15.8759155,11.8043213,26.2498169,11.8043213,7.9592285,0,14.8598022-1.9880371,20.6928711-5.9711914,5.8330688-3.9796143,9.6746216-9.6745605,11.5263062-17.083252h34.9985352c-3.331665,15.555542-10.972229,28.0112305-22.9145508,37.3601074-11.9440918,9.352417-26.621582,14.02771-44.0269775,14.02771v.0002441Z"/>
      <path class="st0" d="M1121.7552289,251.8575266c-13.3302002,0-25.276123-3.055542-35.8305664-9.1665039-10.5544434-6.111084-18.888916-14.6739502-25-25.6939697-6.111084-11.0147705-9.1665039-23.8404541-9.1665039-38.4700928,0-14.4437256,3.055542-27.1738281,9.1665039-38.1939697,6.111084-11.0147705,14.4880371-19.6253662,25.1380615-25.8320312,10.6464844-6.2012939,22.6384277-9.3045654,35.972168-9.3045654,13.3320312,0,25.276123,3.1032715,35.8305664,9.3045654,10.5544434,6.206665,18.888916,14.8172607,25,25.8320312,6.111084,11.0200195,9.1665039,23.7501221,9.1665039,38.1939697,0,14.6296387-3.055542,27.4553223-9.1665039,38.4700928-6.111084,11.0200195-14.4915771,19.5828857-25.1380615,25.6939697-10.6500244,6.111084-22.6384277,9.1665039-35.972168,9.1665039ZM1121.7552289,223.2460764c10.0020752,0,18.5632324-3.7495117,25.6939697-11.2484131,7.1271973-7.5007324,10.6960449-18.6534424,10.6960449-33.4708252,0-14.8137207-3.5211182-25.9240723-10.5561523-33.3327637-7.0404053-7.4033203-15.555542-11.1103516-25.5540771-11.1103516-10.0003662,0-18.5667725,3.7070312-25.6939697,11.1103516-7.1307373,7.4086914-10.6943359,18.5189209-10.6943359,33.3327637,0,14.8172607,3.5157471,25.9700928,10.5561523,33.4708252,7.0351562,7.4989014,15.5537109,11.2484131,25.5522461,11.2484131h.0001221Z"/>
      <path class="st0" d="M1221.4736127,248.5240305V108.5298899h29.7213135l3.055542,26.1099854c4.8116455-9.0709229,11.6661377-16.2495117,20.5548096-21.5266113,8.8885498-5.2772217,19.5351562-7.916748,31.9429932-7.916748v35.2764893h-11.6661377c-7.5963135,0-14.4437256,1.2055664-20.5548096,3.6113281-6.111084,2.4075928-10.9296875,6.6226807-14.4437256,12.6380615-3.5211182,6.0189209-5.2772217,14.3039551-5.2772217,24.8601074v66.9415283h-33.3327637Z"/>
      <path class="st0" d="M1391.1891888,251.8575266c-13.8861084,0-26.1081543-3.0130615-36.6644287-9.0284424-10.5544434-6.0153809-18.796875-14.4862061-24.7220459-25.4160156-5.9268799-10.9226074-8.8868408-23.5146484-8.8868408-37.776123,0-14.6260986,2.9156494-27.5421143,8.7487793-38.7480469,5.8331299-11.2023926,14.0701904-19.9511719,24.7220459-26.2480469,10.6447754-6.293335,23.0065918-9.444458,37.0821533-9.444458,13.7020264,0,25.6444092,3.055542,35.8305664,9.1665039,10.1827393,6.111084,18.0551758,14.3039551,23.6103516,24.5821533,5.5568848,10.2764893,8.3327637,21.8045654,8.3327637,34.5808105,0,1.8535156-.0460205,3.8892822-.1380615,6.111084-.0955811,2.2235107-.2336426,4.5407715-.4178467,6.9448242h-104.9956055c.7399902,12.0396729,4.6275635,21.3443604,11.6661377,27.9156494,7.0351562,6.5748291,15.555542,9.8604736,25.5557861,9.8604736,7.7768555,0,14.208252-1.6658936,19.3032227-4.9992676,5.0913086-3.3334961,8.8408203-7.7786865,11.2519531-13.3337402h33.8868408c-3.8892822,13.1514893-11.4855957,24.0759277-22.7764893,32.7768555-11.2979736,8.7062988-25.0955811,13.0559082-41.3892822,13.0559082v-.0001221ZM1391.1891888,132.4180734c-9.0744629,0-17.081543,2.7332764-24.0263672,8.1928711-6.9431152,5.4648438-11.2484131,13.6595459-12.9160156,24.5821533h71.3867188c-.3735352-10.1809082-3.7972412-18.1932373-10.2764893-24.0263672-6.4863281-5.8331299-14.5411377-8.7487793-24.1679688-8.7487793l.0001221.0001221Z"/>
      <path class="st1" d="M1475.3520306,248.5240305l71.1088867-194.437561h37.2202148l71.1070557,194.437561h-35.2746582l-16.1113281-45.8326416h-77.2181396l-16.1113281,45.8326416h-34.7207031ZM1564.7939252,92.9743479l-29.1672363,83.3309326h58.6105957l-29.4433594-83.3309326ZM1678.3985394,248.5240305V54.0864694h33.3327637v194.437561h-33.3327637Z"/>
    </g>
    <path class="st0" d="M1741.402934,79.6215647v-23.0181274h-7.6237793v-2.5169678h18.3125v2.5169678h-7.6237793v23.0181274h-3.0653076.0003662Z"/>
    <path class="st0" d="M1755.4839886,79.6215647v-25.5350952h3.5748291l9.0469971,17.8386841,9.0098877-17.838623h3.6120605v25.5350342h-3.0637207v-20.0628662l-8.4274902,16.4880371h-2.2984619l-8.3886719-16.4152222v19.9900513h-3.0655518.0001221Z"/>
  </g>
</svg>